<svg width="334" height="48" viewBox="0 0 334 48" fill="none" xmlns="http://www.w3.org/2000/svg">
<path d="M0.431203 37V0.599998H32.6192V37H25.9632V4.656L27.5232 6.32H5.5272L7.0872 4.656V37H0.431203ZM54.5311 37.364C51.6884 37.364 49.1578 36.7573 46.9391 35.544C44.7204 34.296 42.9698 32.5973 41.6871 30.448C40.4044 28.2987 39.7631 25.8547 39.7631 23.116C39.7631 20.3427 40.4044 17.8987 41.6871 15.784C42.9698 13.6347 44.7204 11.9533 46.9391 10.74C49.1578 9.52667 51.6884 8.92 54.5311 8.92C57.4084 8.92 59.9564 9.52667 62.1751 10.74C64.4284 11.9533 66.1791 13.6173 67.4271 15.732C68.7098 17.8467 69.3511 20.308 69.3511 23.116C69.3511 25.8547 68.7098 28.2987 67.4271 30.448C66.1791 32.5973 64.4284 34.296 62.1751 35.544C59.9564 36.7573 57.4084 37.364 54.5311 37.364ZM54.5311 31.8C56.1258 31.8 57.5471 31.4533 58.7951 30.76C60.0431 30.0667 61.0138 29.0613 61.7071 27.744C62.4351 26.4267 62.7991 24.884 62.7991 23.116C62.7991 21.3133 62.4351 19.7707 61.7071 18.488C61.0138 17.1707 60.0431 16.1653 58.7951 15.472C57.5471 14.7787 56.1431 14.432 54.5831 14.432C52.9884 14.432 51.5671 14.7787 50.3191 15.472C49.1058 16.1653 48.1351 17.1707 47.4071 18.488C46.6791 19.7707 46.3151 21.3133 46.3151 23.116C46.3151 24.884 46.6791 26.4267 47.4071 27.744C48.1351 29.0613 49.1058 30.0667 50.3191 30.76C51.5671 31.4533 52.9711 31.8 54.5311 31.8ZM91.1643 37.364C88.911 37.364 86.8483 36.844 84.9763 35.804C83.139 34.764 81.6656 33.204 80.5563 31.124C79.4816 29.0093 78.9443 26.34 78.9443 23.116C78.9443 19.8573 79.4643 17.188 80.5043 15.108C81.579 13.028 83.035 11.4853 84.8723 10.48C86.7096 9.44 88.807 8.92 91.1643 8.92C93.903 8.92 96.3123 9.50933 98.3923 10.688C100.507 11.8667 102.171 13.5133 103.384 15.628C104.632 17.7427 105.256 20.2387 105.256 23.116C105.256 25.9933 104.632 28.5067 103.384 30.656C102.171 32.7707 100.507 34.4173 98.3923 35.596C96.3123 36.7747 93.903 37.364 91.1643 37.364ZM75.7723 47.088V9.232H81.9603V15.784L81.7523 23.168L82.2723 30.552V47.088H75.7723ZM90.4363 31.8C91.9963 31.8 93.383 31.4533 94.5963 30.76C95.8443 30.0667 96.8323 29.0613 97.5603 27.744C98.2883 26.4267 98.6523 24.884 98.6523 23.116C98.6523 21.3133 98.2883 19.7707 97.5603 18.488C96.8323 17.1707 95.8443 16.1653 94.5963 15.472C93.383 14.7787 91.9963 14.432 90.4363 14.432C88.8763 14.432 87.4723 14.7787 86.2243 15.472C84.9763 16.1653 83.9883 17.1707 83.2603 18.488C82.5323 19.7707 82.1683 21.3133 82.1683 23.116C82.1683 24.884 82.5323 26.4267 83.2603 27.744C83.9883 29.0613 84.9763 30.0667 86.2243 30.76C87.4723 31.4533 88.8763 31.8 90.4363 31.8ZM116.482 37V13.184L117.99 14.744H106.706V9.232H132.706V14.744H121.474L122.982 13.184V37H116.482ZM154.269 37V31.384L153.905 30.188V20.36C153.905 18.4533 153.333 16.98 152.189 15.94C151.045 14.8653 149.311 14.328 146.989 14.328C145.429 14.328 143.886 14.5707 142.361 15.056C140.87 15.5413 139.605 16.2173 138.565 17.084L136.017 12.352C137.507 11.208 139.275 10.3587 141.321 9.804C143.401 9.21467 145.55 8.92 147.769 8.92C151.79 8.92 154.893 9.89067 157.077 11.832C159.295 13.7387 160.405 16.7027 160.405 20.724V37H154.269ZM145.533 37.364C143.453 37.364 141.633 37.0173 140.073 36.324C138.513 35.596 137.299 34.608 136.433 33.36C135.601 32.0773 135.185 30.6387 135.185 29.044C135.185 27.484 135.549 26.08 136.277 24.832C137.039 23.584 138.27 22.596 139.969 21.868C141.667 21.14 143.921 20.776 146.729 20.776H154.789V25.092H147.197C144.978 25.092 143.487 25.456 142.725 26.184C141.962 26.8773 141.581 27.744 141.581 28.784C141.581 29.9627 142.049 30.8987 142.985 31.592C143.921 32.2853 145.221 32.632 146.885 32.632C148.479 32.632 149.901 32.268 151.149 31.54C152.431 30.812 153.35 29.7373 153.905 28.316L154.997 32.216C154.373 33.8453 153.246 35.1107 151.617 36.012C150.022 36.9133 147.994 37.364 145.533 37.364ZM164.392 36.948L164.704 31.488C164.947 31.5227 165.172 31.5573 165.38 31.592C165.588 31.6267 165.779 31.644 165.952 31.644C167.027 31.644 167.859 31.3147 168.448 30.656C169.037 29.9973 169.471 29.1133 169.748 28.004C170.06 26.86 170.268 25.5947 170.372 24.208C170.511 22.7867 170.615 21.3653 170.684 19.944L171.152 9.232H193.616V37H187.116V12.976L188.624 14.744H175.416L176.82 12.924L176.456 20.256C176.352 22.7173 176.144 25.0053 175.832 27.12C175.555 29.2 175.104 31.02 174.48 32.58C173.891 34.14 173.059 35.3533 171.984 36.22C170.944 37.0867 169.609 37.52 167.98 37.52C167.46 37.52 166.888 37.468 166.264 37.364C165.675 37.26 165.051 37.1213 164.392 36.948ZM217.521 37V0.599998H233.797C237.888 0.599998 241.077 1.41466 243.365 3.044C245.653 4.63866 246.797 6.944 246.797 9.96C246.797 12.9413 245.705 15.2467 243.521 16.876C241.337 18.4707 238.46 19.268 234.889 19.268L235.825 17.396C239.881 17.396 243.018 18.2107 245.237 19.84C247.456 21.4693 248.565 23.8267 248.565 26.912C248.565 30.0667 247.404 32.5453 245.081 34.348C242.758 36.116 239.326 37 234.785 37H217.521ZM224.177 31.8H234.577C236.934 31.8 238.72 31.3667 239.933 30.5C241.146 29.5987 241.753 28.2293 241.753 26.392C241.753 24.5547 241.146 23.22 239.933 22.388C238.72 21.5213 236.934 21.088 234.577 21.088H224.177V31.8ZM224.177 16.148H233.225C235.409 16.148 237.073 15.7147 238.217 14.848C239.361 13.9467 239.933 12.664 239.933 11C239.933 9.26667 239.361 7.96667 238.217 7.1C237.073 6.23333 235.409 5.8 233.225 5.8H224.177V16.148ZM273.01 37.52C270.237 37.52 267.654 37.0693 265.262 36.168C262.905 35.232 260.842 33.932 259.074 32.268C257.341 30.5693 255.989 28.576 255.018 26.288C254.047 24 253.562 21.504 253.562 18.8C253.562 16.096 254.047 13.6 255.018 11.312C255.989 9.024 257.358 7.048 259.126 5.384C260.894 3.68533 262.957 2.38533 265.314 1.484C267.671 0.547998 270.254 0.079998 273.062 0.079998C276.043 0.079998 278.765 0.599999 281.226 1.64C283.687 2.64533 285.767 4.15333 287.466 6.164L283.098 10.272C281.781 8.85067 280.307 7.79333 278.678 7.1C277.049 6.372 275.281 6.008 273.374 6.008C271.467 6.008 269.717 6.32 268.122 6.944C266.562 7.568 265.193 8.452 264.014 9.596C262.87 10.74 261.969 12.092 261.31 13.652C260.686 15.212 260.374 16.928 260.374 18.8C260.374 20.672 260.686 22.388 261.31 23.948C261.969 25.508 262.87 26.86 264.014 28.004C265.193 29.148 266.562 30.032 268.122 30.656C269.717 31.28 271.467 31.592 273.374 31.592C275.281 31.592 277.049 31.2453 278.678 30.552C280.307 29.824 281.781 28.732 283.098 27.276L287.466 31.436C285.767 33.412 283.687 34.92 281.226 35.96C278.765 37 276.026 37.52 273.01 37.52ZM293.794 37V0.599998H299.306L315.27 27.172H312.306L328.01 0.599998H333.522L333.626 37H327.178L327.126 10.636H328.478L315.166 32.84H312.15L298.63 10.636H300.19V37H293.794Z" fill="white"/>
</svg>
