<svg width="663" height="298" viewBox="0 0 663 298" fill="none" xmlns="http://www.w3.org/2000/svg">
<path d="M572.163 162.41C577.441 162.409 582.668 163.449 587.545 165.469C592.422 167.49 596.853 170.452 600.585 174.186C604.318 177.921 607.278 182.355 609.298 187.234C611.317 192.114 612.356 197.344 612.355 202.625V231.428H549.518C527.386 231.428 509.322 213.337 509.322 191.209V162.41H572.163ZM600.246 202.625C600.246 187.172 587.599 174.704 572.163 174.704H521.613V191.209C521.613 206.666 534.077 219.308 549.522 219.308H600.246V202.625Z" fill="#E11334"/>
<path d="M612.355 86.1963V114.999C612.355 137.143 594.278 155.214 572.163 155.214H509.326V126.419C509.324 121.137 510.363 115.906 512.382 111.025C514.402 106.145 517.362 101.71 521.095 97.9751C524.828 94.2399 529.26 91.2771 534.137 89.256C539.015 87.235 544.242 86.1953 549.522 86.1963H612.355Z" fill="#E11334"/>
<path d="M460.981 86.1963C466.259 86.1953 471.486 87.2347 476.363 89.2553C481.24 91.2758 485.672 94.2379 489.404 97.9723C493.137 101.707 496.098 106.14 498.118 111.02C500.138 115.9 501.177 121.129 501.177 126.411V155.214H438.34C416.208 155.214 398.147 137.127 398.147 114.999V86.1963H460.981Z" fill="#E11334"/>
<path d="M500.924 231.57C497.027 231.57 492.838 231.57 488.779 231.55C487.648 231.523 486.534 231.271 485.501 230.809C484.468 230.347 483.538 229.683 482.764 228.858C476.03 221.969 469.297 215.073 462.565 208.169H434.38C433.682 208.169 432.99 208.031 432.346 207.764C431.701 207.496 431.115 207.104 430.622 206.609C430.129 206.115 429.739 205.528 429.473 204.882C429.207 204.237 429.07 203.545 429.072 202.847C429.096 200.711 429.122 198.577 429.151 196.445L471.287 196.472H477.121C478.567 196.5 480.005 196.239 481.349 195.704C482.693 195.169 483.918 194.371 484.95 193.358C485.983 192.344 486.803 191.134 487.363 189.8C487.923 188.465 488.212 187.032 488.212 185.584C488.212 184.137 487.923 182.704 487.363 181.369C486.803 180.034 485.983 178.825 484.95 177.811C483.918 176.797 482.693 175.999 481.349 175.465C480.005 174.93 478.567 174.669 477.121 174.696H439.071C423.709 174.807 411.181 187.231 411.181 202.617L411.209 231.578H399.076V202.625C399.081 193.226 402.374 184.125 408.384 176.902C414.395 169.679 422.743 164.79 431.981 163.083C434.386 162.65 436.825 162.432 439.268 162.43H477.121C490.024 162.43 500.398 173.162 500.117 185.61C499.849 197.492 489.949 207.473 477.642 207.754C485.345 215.631 493.221 223.67 500.924 231.57Z" fill="#010101"/>
<g filter="url(#filter0_d_589_109)">
<path d="M233.648 81.5376C237.2 83.2312 239.389 86.5964 239.389 90.3616L239.389 223.148C239.389 231.268 229.805 236.82 222.175 233.12L158.511 202.255C154.995 200.55 152.834 197.202 152.834 193.462L152.834 61.1812C152.834 53.092 162.353 47.5393 169.983 51.1779L233.648 81.5376Z" fill="url(#paint0_linear_589_109)"/>
</g>
<g filter="url(#filter1_d_589_109)">
<path d="M154.468 94.7343C158.019 96.4279 160.209 99.7932 160.209 103.558L160.208 236.345C160.208 244.464 150.625 250.016 142.995 246.317L79.3301 215.452C75.8147 213.747 73.6532 210.399 73.6532 206.658L73.6532 74.378C73.6532 66.2887 83.1726 60.7361 90.8028 64.3747L154.468 94.7343Z" fill="url(#paint1_linear_589_109)"/>
</g>
<path d="M295 179.568L344.497 130.071" stroke="#292929" stroke-width="4" stroke-linecap="round"/>
<path d="M295 130L344.497 179.497" stroke="#292929" stroke-width="4" stroke-linecap="round"/>
<defs>
<filter id="filter0_d_589_109" x="102.834" y="0.0395508" width="186.555" height="284.25" filterUnits="userSpaceOnUse" color-interpolation-filters="sRGB">
<feFlood flood-opacity="0" result="BackgroundImageFix"/>
<feColorMatrix in="SourceAlpha" type="matrix" values="0 0 0 0 0 0 0 0 0 0 0 0 0 0 0 0 0 0 127 0" result="hardAlpha"/>
<feOffset/>
<feGaussianBlur stdDeviation="25"/>
<feComposite in2="hardAlpha" operator="out"/>
<feColorMatrix type="matrix" values="0 0 0 0 0.246784 0 0 0 0 0.496253 0 0 0 0 0.989648 0 0 0 0.5 0"/>
<feBlend mode="normal" in2="BackgroundImageFix" result="effect1_dropShadow_589_109"/>
<feBlend mode="normal" in="SourceGraphic" in2="effect1_dropShadow_589_109" result="shape"/>
</filter>
<filter id="filter1_d_589_109" x="23.6532" y="13.2363" width="186.555" height="284.25" filterUnits="userSpaceOnUse" color-interpolation-filters="sRGB">
<feFlood flood-opacity="0" result="BackgroundImageFix"/>
<feColorMatrix in="SourceAlpha" type="matrix" values="0 0 0 0 0 0 0 0 0 0 0 0 0 0 0 0 0 0 127 0" result="hardAlpha"/>
<feOffset/>
<feGaussianBlur stdDeviation="25"/>
<feComposite in2="hardAlpha" operator="out"/>
<feColorMatrix type="matrix" values="0 0 0 0 0.0238286 0 0 0 0 0.30206 0 0 0 0 0.850684 0 0 0 0.5 0"/>
<feBlend mode="normal" in2="BackgroundImageFix" result="effect1_dropShadow_589_109"/>
<feBlend mode="normal" in="SourceGraphic" in2="effect1_dropShadow_589_109" result="shape"/>
</filter>
<linearGradient id="paint0_linear_589_109" x1="231.374" y1="81.0089" x2="172.3" y2="206.966" gradientUnits="userSpaceOnUse">
<stop stop-color="#7BA5F7"/>
<stop offset="1" stop-color="#588FFC"/>
</linearGradient>
<linearGradient id="paint1_linear_589_109" x1="152.193" y1="94.2056" x2="93.1198" y2="220.163" gradientUnits="userSpaceOnUse">
<stop stop-color="#2269F5"/>
<stop offset="1" stop-color="#2269F5"/>
</linearGradient>
</defs>
</svg>
